<?xml version="1.0" standalone="no"?><!DOCTYPE svg PUBLIC "-//W3C//DTD SVG 1.1//EN" "http://www.w3.org/Graphics/SVG/1.1/DTD/svg11.dtd"><svg t="1596078668773" class="icon" viewBox="0 0 1024 1024" version="1.1" xmlns="http://www.w3.org/2000/svg" p-id="16182" xmlns:xlink="http://www.w3.org/1999/xlink" width="64" height="64"><defs><style type="text/css"></style></defs><path d="M765.862957 319.488a29.206261 29.206261 0 0 1-29.206261-29.206261V176.484174H617.071304a29.206261 29.206261 0 0 1 0-58.457044h177.953392V290.281739a29.206261 29.206261 0 0 1-29.206261 29.206261zM399.983304 1012.112696H61.929739V118.02713h177.953391a29.206261 29.206261 0 0 1 0 58.457044H120.342261V953.655652h279.641043a29.206261 29.206261 0 1 1 0 58.412522z m365.879653-364.633044a93.228522 93.228522 0 0 1-93.094957-93.094956v-43.497739a93.139478 93.139478 0 1 1 186.234435 0v43.497739a93.228522 93.228522 0 0 1-93.139478 93.094956z m0-171.27513a34.726957 34.726957 0 0 0-34.682435 34.682435v43.497739a34.726957 34.726957 0 0 0 69.409391 0v-43.497739a34.726957 34.726957 0 0 0-34.726956-34.682435z m203.152695 537.110261h-406.305391v-188.861218a121.188174 121.188174 0 0 1 121.09913-120.965565h164.196174a121.188174 121.188174 0 0 1 121.054609 121.054609l-0.044522 188.772174z m-347.848348-58.412522h289.391305v-130.448696a62.686609 62.686609 0 0 0-62.553044-62.553043h-164.240695c-34.54887 0.044522-62.553043 28.048696-62.597566 62.642087v130.359652z m25.154783-704.868174H210.67687V40.737391h435.645217v209.296696zM269.133913 191.621565h318.775652V99.149913h-318.775652v92.471652z m-29.250783 188.905739h377.188174v58.412522H239.88313V380.527304z m0 190.642087h352.077913v58.412522H239.88313V571.213913z m0 173.011479h259.339131v58.412521H239.88313v-58.412521z" p-id="16183"></path></svg>