<?xml version="1.0" standalone="no"?><!DOCTYPE svg PUBLIC "-//W3C//DTD SVG 1.1//EN" "http://www.w3.org/Graphics/SVG/1.1/DTD/svg11.dtd"><svg t="1595988070441" class="icon" viewBox="0 0 1024 1024" version="1.1" xmlns="http://www.w3.org/2000/svg" p-id="3451" xmlns:xlink="http://www.w3.org/1999/xlink" width="64" height="64"><defs><style type="text/css"></style></defs><path d="M331.84 793.485V387.45c0-16.192-12.457-28.645-27.4-28.645h-82.205c-14.942 0-27.4 13.698-27.4 28.645v406.034h137.006z m174.371 0V213.082c0-16.193-12.454-29.895-27.401-29.895h-82.206c-14.942 0-27.4 13.702-27.4 29.895v580.403h137.007z m174.37 0V536.91c0-16.191-12.454-29.89-27.4-29.89H570.98c-14.948 0-27.406 13.699-27.406 29.89v256.575H680.58z m174.368 0V387.45c0-16.192-12.452-28.645-27.4-28.645h-82.2c-14.948 0-27.4 13.698-27.4 28.645v406.034h137z m24.911 37.364" p-id="3452"></path></svg>