<?xml version="1.0" standalone="no"?><!DOCTYPE svg PUBLIC "-//W3C//DTD SVG 1.1//EN" "http://www.w3.org/Graphics/SVG/1.1/DTD/svg11.dtd"><svg t="1595226004652" class="icon" viewBox="0 0 1024 1024" version="1.1" xmlns="http://www.w3.org/2000/svg" p-id="2744" xmlns:xlink="http://www.w3.org/1999/xlink" width="64" height="64"><defs><style type="text/css"></style></defs><path d="M647.68 554.496c82.944-47.104 138.752-136.192 138.752-238.592 0-151.552-122.88-274.432-274.432-274.432s-274.432 122.88-274.432 274.432c0 101.888 55.808 190.976 138.752 238.592-174.592 54.272-297.472 211.456-297.472 402.432 0 15.36 12.8 28.16 28.16 28.16s28.16-12.8 28.16-28.16c0-205.312 164.864-366.08 375.808-366.08h2.048c210.944 0.512 375.808 161.28 375.808 366.08 0 15.36 12.8 28.16 28.16 28.16s28.16-12.8 28.16-28.16c0-190.464-123.392-348.16-297.472-402.432zM293.888 316.416c0-120.32 97.792-218.112 218.112-218.112s218.112 97.792 218.112 218.112c0 119.808-97.28 217.6-217.088 218.112h-2.048c-119.808-0.512-217.088-98.304-217.088-218.112z" fill="" p-id="2745"></path></svg>