<?xml version="1.0" standalone="no"?><!DOCTYPE svg PUBLIC "-//W3C//DTD SVG 1.1//EN" "http://www.w3.org/Graphics/SVG/1.1/DTD/svg11.dtd"><svg t="1596105077127" class="icon" viewBox="0 0 1024 1024" version="1.1" xmlns="http://www.w3.org/2000/svg" p-id="23717" xmlns:xlink="http://www.w3.org/1999/xlink" width="64" height="64"><defs><style type="text/css"></style></defs><path d="M228.5 751.9l515.5 0 0 60.5-515.5 0 0-60.5Z" p-id="23718"></path><path d="M228.5 619.8l515.5 0 0 60.5-515.5 0 0-60.5Z" p-id="23719"></path><path d="M232.9 206.8l229.5 0 0 204.3-229.5 0 0-204.3Z" p-id="23720"></path><path d="M228.5 493.3l515.5 0 0 60.5-515.5 0 0-60.5Z" p-id="23721"></path><path d="M762.4 16.1 210.1 16.1c-55 0-100 45-100 100l0 787c0 55 45 100 100 100l552.3 0c55 0 100-45 100-100L862.4 116.1C862.4 61.1 817.4 16.1 762.4 16.1zM787.9 844.2c0 44-36 80-80 80L264.5 924.2c-44 0-80-36-80-80L184.5 175c0-44 36-80 80-80l443.4 0c44 0 80 36 80 80L787.9 844.2z" p-id="23722"></path><path d="M557.4 350.5l186.6 0 0 58-186.6 0 0-58Z" p-id="23723"></path><path d="M557.4 206.8l186.6 0 0 57.9-186.6 0 0-57.9Z" p-id="23724"></path></svg>