<?xml version="1.0" standalone="no"?><!DOCTYPE svg PUBLIC "-//W3C//DTD SVG 1.1//EN" "http://www.w3.org/Graphics/SVG/1.1/DTD/svg11.dtd"><svg t="1596093587936" class="icon" viewBox="0 0 1024 1024" version="1.1" xmlns="http://www.w3.org/2000/svg" p-id="19029" xmlns:xlink="http://www.w3.org/1999/xlink" width="64" height="64"><defs><style type="text/css"></style></defs><path d="M798.4 180.8H225.6c-36.8 0-65.6 28.8-65.6 65.6v131.2c0 36.8 30.4 65.6 65.6 65.6h19.2v334.4c0 36.8 28.8 65.6 65.6 65.6h403.2c36.8 0 65.6-28.8 65.6-65.6V443.2h19.2c36.8 0 65.6-28.8 65.6-65.6v-131.2c0-36.8-30.4-65.6-65.6-65.6z m-192 352c9.6-1.6 17.6 4.8 19.2 14.4v4.8c1.6 9.6-4.8 17.6-14.4 19.2H528v30.4h76.8c9.6-1.6 17.6 4.8 19.2 14.4v4.8c1.6 9.6-4.8 17.6-14.4 19.2H528v64c0 6.4-1.6 12.8-3.2 19.2-4.8 4.8-9.6 6.4-16 4.8-6.4 0-11.2-1.6-16-4.8-3.2-4.8-4.8-12.8-4.8-19.2v-64h-76.8c-9.6 1.6-17.6-4.8-19.2-14.4v-4.8c0-4.8 1.6-11.2 4.8-14.4 3.2-3.2 9.6-4.8 14.4-4.8h76.8v-30.4h-76.8c-9.6 1.6-17.6-4.8-19.2-14.4v-4.8c0-4.8 1.6-11.2 4.8-14.4 3.2-3.2 9.6-4.8 14.4-4.8h57.6L396.8 416c-3.2-4.8-4.8-9.6-4.8-14.4 0-4.8 1.6-9.6 6.4-11.2 4.8-3.2 9.6-4.8 14.4-4.8 6.4 0 11.2 3.2 16 11.2l80 134.4 80-134.4c4.8-8 9.6-12.8 14.4-12.8 4.8 0 11.2 1.6 14.4 4.8 4.8 1.6 8 6.4 8 11.2 0 6.4-1.6 11.2-4.8 16l-70.4 116.8h56z m214.4-155.2c0 12.8-9.6 22.4-22.4 22.4h-19.2v-65.6c11.2-1.6 19.2-9.6 19.2-20.8 0-12.8-9.6-22.4-22.4-22.4h-528c-12.8 0-22.4 9.6-22.4 22.4 0 11.2 8 19.2 19.2 20.8V400h-19.2c-12.8 0-22.4-9.6-22.4-22.4v-131.2c0-12.8 9.6-22.4 22.4-22.4h571.2c12.8 0 22.4 9.6 22.4 22.4l1.6 131.2z" fill="#333333" p-id="19030"></path></svg>