<?xml version="1.0" standalone="no"?><!DOCTYPE svg PUBLIC "-//W3C//DTD SVG 1.1//EN" "http://www.w3.org/Graphics/SVG/1.1/DTD/svg11.dtd"><svg t="1595994976940" class="icon" viewBox="0 0 1024 1024" version="1.1" xmlns="http://www.w3.org/2000/svg" p-id="13011" xmlns:xlink="http://www.w3.org/1999/xlink" width="64" height="64"><defs><style type="text/css"></style></defs><path d="M310.857 914.286H128A18.286 18.286 0 0 1 109.714 896V128A18.286 18.286 0 0 1 128 109.714h182.857A18.286 18.286 0 0 1 329.143 128v768a18.286 18.286 0 0 1-18.286 18.286z m-164.571-36.572H292.57V146.286H146.286zM896 329.143H420.571a18.286 18.286 0 0 1-18.285-18.286V128a18.286 18.286 0 0 1 18.285-18.286H896A18.286 18.286 0 0 1 914.286 128v182.857A18.286 18.286 0 0 1 896 329.143zM438.857 292.57h438.857V146.286H438.857zM896 621.714H420.571a18.286 18.286 0 0 1-18.285-18.285V420.57a18.286 18.286 0 0 1 18.285-18.285H896a18.286 18.286 0 0 1 18.286 18.285V603.43A18.286 18.286 0 0 1 896 621.714z m-457.143-36.571h438.857V438.857H438.857zM896 914.286H420.571A18.286 18.286 0 0 1 402.286 896V713.143a18.286 18.286 0 0 1 18.285-18.286H896a18.286 18.286 0 0 1 18.286 18.286V896A18.286 18.286 0 0 1 896 914.286z m-457.143-36.572h438.857V731.43H438.857z" p-id="13012"></path></svg>