<?xml version="1.0" standalone="no"?><!DOCTYPE svg PUBLIC "-//W3C//DTD SVG 1.1//EN" "http://www.w3.org/Graphics/SVG/1.1/DTD/svg11.dtd"><svg t="1595226362942" class="icon" viewBox="0 0 1024 1024" version="1.1" xmlns="http://www.w3.org/2000/svg" p-id="3494" xmlns:xlink="http://www.w3.org/1999/xlink" width="64" height="64"><defs><style type="text/css"></style></defs><path d="M596.7 854.5H113.1c24.6-89.8 80.2-167.5 158.3-220.2 10.4-7 13.1-21.1 6.1-31.5-7-10.4-21.1-13.1-31.5-6.1-93.2 62.9-157.8 157.7-181.9 267-0.4 1.7-0.5 3.5-0.5 5.2-2.8 7-2 14.9 2.3 21.2 4.2 6.2 11.3 10 18.8 9.9h512.1c12.5 0 22.7-10.2 22.7-22.7-0.1-12.6-10.2-22.8-22.8-22.8zM468.1 567.4c136.5 0 247.5-111 247.5-247.4 0-136.5-111-247.5-247.5-247.5S220.6 183.5 220.6 320s111 247.4 247.5 247.4z m0-449.6c111.4 0 202.1 90.7 202.1 202.1 0 111.5-90.6 202-202.1 202C356.7 522 266 431.4 266 320c0-111.5 90.7-202.2 202.1-202.2z m428.7 436.5h-274c-26 0-49.4 15.6-59.4 39.6s-4.6 51.6 13.7 70.1l97.4 100.8v115.9c0.2 12.3 10.3 22.2 22.6 22.2s22.4-9.9 22.6-22.2V755.6c0-5.9-2.3-11.5-6.4-15.7L609.4 632.2c-3.7-3.6-5.7-8.5-5.7-13.6 0-10.5 8.6-19.1 19.1-19.1h273.9c10.5 0 19.1 8.5 19.1 19.1 0.1 4.9-1.8 9.6-5.2 13.1L797.8 739c-4.5 4.3-7 10.2-7 16.4v169.9c0 12.5 10.1 22.6 22.6 22.6 12.5 0 22.6-10.1 22.7-22.6V765.1l106.2-101c18.4-18.4 23.9-46.1 14-70.1-10-24-33.5-39.7-59.5-39.7z m0 0" p-id="3495"></path></svg>