<?xml version="1.0" standalone="no"?><!DOCTYPE svg PUBLIC "-//W3C//DTD SVG 1.1//EN" "http://www.w3.org/Graphics/SVG/1.1/DTD/svg11.dtd"><svg t="1595989272351" class="icon" viewBox="0 0 1024 1024" version="1.1" xmlns="http://www.w3.org/2000/svg" p-id="10754" xmlns:xlink="http://www.w3.org/1999/xlink" width="64" height="64"><defs><style type="text/css"></style></defs><path d="M911.530667 262.144a37.973333 37.973333 0 0 0-37.802667-33.792H683.861333V190.293333A190.293333 190.293333 0 0 0 493.909333 0 190.293333 190.293333 0 0 0 303.786667 190.293333v38.058667H114.005333a37.888 37.888 0 0 0-37.717333 33.792l-76.032 684.970667a37.973333 37.973333 0 0 0 37.802667 42.325333H949.76a38.058667 38.058667 0 0 0 37.717333-42.325333l-75.946666-684.970667z m-531.626667-71.850667c0-62.976 51.2-114.176 114.005333-114.176 62.805333 0 113.92 51.2 113.92 114.176v38.058667h-227.84V190.293333z m-299.52 723.029334l67.669333-608.853334H303.786667v114.090667a38.058667 38.058667 0 0 0 76.032 0V304.469333h227.84v114.090667a38.058667 38.058667 0 0 0 76.117333 0V304.469333H839.68l67.584 608.853334H80.469333zM699.733333 542.378667L570.368 670.549333l-114.346667-114.517333a36.864 36.864 0 0 0-8.533333-13.653333 36.266667 36.266667 0 0 0-28.501333-10.24 35.84 35.84 0 0 0-36.608 23.04L238.677333 697.258667a36.352 36.352 0 0 0 0 51.712 37.12 37.12 0 0 0 52.224 0l128-126.72 119.296 119.296c1.536 2.56 2.816 5.205333 5.034667 7.424a36.693333 36.693333 0 0 0 27.136 10.496A36.181333 36.181333 0 0 0 597.333333 749.056c1.536-1.621333 2.389333-3.754667 3.669334-5.546667L751.957333 593.92a36.352 36.352 0 0 0 0-51.626667 37.12 37.12 0 0 0-52.224 0z" p-id="10755"></path></svg>