<?xml version="1.0" standalone="no"?><!DOCTYPE svg PUBLIC "-//W3C//DTD SVG 1.1//EN" "http://www.w3.org/Graphics/SVG/1.1/DTD/svg11.dtd"><svg t="1596089569153" class="icon" viewBox="0 0 1024 1024" version="1.1" xmlns="http://www.w3.org/2000/svg" p-id="17828" xmlns:xlink="http://www.w3.org/1999/xlink" width="64" height="64"><defs><style type="text/css"></style></defs><path d="M210.062761 618.008382l-4.044106 0c-42.007743 0-96.622618-28.206412-123.94387-91.223654-12.377912-28.449959-24.561395-63.530942-12.228509-119.686916 12.929474-58.866712 51.916417-135.665843 119.190613-234.785328l6.089695-8.973372 643.910309 0 5.865591 10.43977c2.186805 3.891633 4.451382 7.90504 6.779404 12.032034 28.137851 49.875944 66.673515 118.184703 89.013313 185.490621 12.715603 38.310537 18.809391 71.579245 18.628266 101.70845-0.218988 36.503379-10.029424 67.681472-29.15911 92.666516-24.896017 32.81743-55.769165 49.494251-91.708702 49.494251-73.728188 0-145.842623-69.26862-166.187997-90.499154l-5.690606-5.937223L666.577053 305.682028l0.074701-0.87595c0.038886-0.451278 0.090051-0.88209 0.149403-1.289366-0.51984-4.617158-3.356444-7.91118-5.918803-7.91118-2.983961 0-6.321986 4.027733-6.321986 9.41851l0 216.338187-3.307326 5.087878c-13.894452 21.369703-56.178487 86.402859-131.770116 86.402859-82.71077 0-125.707027-63.554478-136.914276-83.034135l-2.727111-4.738931L379.841539 305.025065c0-5.390777-3.169179-9.41851-6.002714-9.41851-2.838651 0-6.013971 4.027733-6.013971 9.41851l0 219.883943-3.580548 5.227048c-7.377014 10.771321-23.475667 31.602765-48.409546 50.088792-31.390941 23.273053-66.818825 35.977399-105.298208 37.759999L210.062761 618.008382zM216.851375 204.27136c-60.573587 90.336448-95.607498 159.622464-107.025549 211.607442-9.717316 44.242643-0.912789 69.993121 9.79304 94.599542 19.949354 46.01194 57.765635 66.597791 86.399789 66.597791l3.084245 0c63.296605-3.119037 101.543697-43.217291 117.789707-65.056692l0-206.994378c0-27.76332 21.059642-50.350758 46.946218-50.350758 25.880437 0 46.934962 22.587438 46.934962 50.350758l0 208.878285c11.502985 18.086937 43.217291 58.018392 98.709139 58.018392 49.073672 0 80.094176-41.618886 94.145194-62.73788L613.62812 305.025065c0-27.76332 21.197788-50.350758 47.254234-50.350758 25.880437 0 46.934962 22.587438 46.934962 50.350758 0 1.387603-0.127913 2.623757-0.308015 3.692089L707.509301 502.139421c34.732036 34.495652 87.62878 72.098062 130.946354 72.098062 23.084765 0 41.880853-10.604522 59.154261-33.373085 26.050306-34.024931 27.457352-86.710874 4.237511-156.669202-21.090341-63.542198-58.499345-129.853463-85.814458-178.272219-0.312108-0.552585-0.62217-1.104147-0.932232-1.65264L216.851375 204.270337z" p-id="17829"></path><path d="M759.712243 860.659865 264.241708 860.659865c-60.917418 0-110.47716-49.633421-110.47716-110.640889l0-128.547725 25.521257 6.504134c8.490372 2.164293 16.783245 3.353374 24.647353 3.532453l0.697895 0.027629c0.427742 0.024559 0.89437 0.036839 1.387603 0.036839l3.570315 0c0.367367 0 0.740874-0.01535 1.109264-0.027629 76.836993-3.618411 124.553761-49.748031 146.162918-76.93216l16.984836-21.366633 15.750729 22.291702c18.703991 26.471908 60.45079 70.882374 129.886209 70.882374 74.507948 0 117.049856-51.700499 131.881656-73.928756l13.539364-20.292162 17.630542 16.861016c25.049512 23.956621 90.38659 79.676667 155.921165 79.676667 2.534729 0 5.323239-0.234337 8.275477-0.483001l23.458271-1.940189 0 123.704416C870.189404 811.026444 820.629661 860.659865 759.712243 860.659865zM194.696796 671.986761l0 78.032214c0 38.438451 31.197536 69.708642 69.544913 69.708642l495.471558 0c38.347376 0 69.544913-31.271214 69.544913-69.708642l0-80.614016c-63.071478-3.612271-121.145128-43.427068-158.02099-75.309196-25.793456 30.80561-75.234495 73.257467-151.753239 73.257467-71.637574 0-119.54263-36.72032-147.409304-68.13582-30.634718 31.56695-83.051531 69.654406-159.569252 73.220628l-0.202615 0.008186c-0.899486 0.032746-1.813299 0.060375-2.712785 0.060375l-3.570315 0c-1.136893 0-2.261507-0.027629-3.348258-0.082888C200.034361 672.355151 197.375811 672.210865 194.696796 671.986761z" p-id="17830"></path></svg>