<?xml version="1.0" standalone="no"?><!DOCTYPE svg PUBLIC "-//W3C//DTD SVG 1.1//EN" "http://www.w3.org/Graphics/SVG/1.1/DTD/svg11.dtd"><svg t="1596097294369" class="icon" viewBox="0 0 1024 1024" version="1.1" xmlns="http://www.w3.org/2000/svg" p-id="20240" xmlns:xlink="http://www.w3.org/1999/xlink" width="64" height="64"><defs><style type="text/css"></style></defs><path d="M516.964848 835.584c4.778667 4.964848 11.419152 7.633455 18.245819 7.633455 6.826667 0 13.529212-2.668606 18.245818-7.633455s7.633455-11.419152 7.633454-18.432l-2.11006-726.853818h233.161697l-2.110061 726.853818c0 14.273939 11.605333 25.879273 25.879273 25.879273s25.879273-11.605333 25.879273-25.879273l3.040969-735.790545c0-11.605333-4.592485-22.838303-12.908606-31.216485-8.254061-8.129939-19.42497-12.908606-31.030303-12.908606H550.229333c-11.605333 0-22.838303 4.592485-30.968242 12.908606a44.193358 44.193358 0 0 0-12.908606 31.216485l3.04097 735.790545c0.124121 7.012848 2.792727 13.653333 7.571393 18.432z m-312.475151-33.636848c6.640485 0 12.908606-2.668606 17.687273-7.447273s7.19903-11.046788 7.19903-17.687273V256.496485h149.069576v520.316121c0 13.901576 11.23297 25.072485 24.886303 25.072485 13.715394 0 24.886303-11.23297 24.886303-25.072485V248.118303c0-23.024485-18.618182-41.642667-41.456485-41.642667H221.246061c-22.838303 0-41.456485 18.618182-41.456485 41.642667v528.694303a24.625648 24.625648 0 0 0 24.700121 25.134546z m773.026909 4.716606c-5.895758-5.895758-13.901576-9.309091-22.279758-9.309091-8.378182 0-16.384 3.227152-22.279757 9.309091a31.402667 31.402667 0 0 0-9.122909 22.279757c0 31.588848-201.200485 94.704485-417.792 94.704485s-406.000485-63.115636-406.000485-94.704485c0-17.501091-14.087758-31.588848-31.402667-31.588848S37.236364 811.442424 37.236364 828.943515C37.236364 932.584727 308.441212 986.763636 505.980121 986.763636s480.535273-54.178909 480.535273-157.820121c0.124121-8.192-3.10303-16.384-8.998788-22.279757z m-270.398061-142.24291l0.744728-468.371393h-52.689455l0.186182 468.371393h51.758545z" p-id="20241"></path></svg>