<?xml version="1.0" standalone="no"?><!DOCTYPE svg PUBLIC "-//W3C//DTD SVG 1.1//EN" "http://www.w3.org/Graphics/SVG/1.1/DTD/svg11.dtd"><svg t="1596097232724" class="icon" viewBox="0 0 1024 1024" version="1.1" xmlns="http://www.w3.org/2000/svg" p-id="20042" xmlns:xlink="http://www.w3.org/1999/xlink" width="64" height="64"><defs><style type="text/css"></style></defs><path d="M627 462L387 223l16-7c2-1 44-20 109-20s107 17 108 18l8 3zM430 231l173 172V233c-14-4-47-13-92-13a282 282 0 0 0-81 11z" fill="#606060" p-id="20043"></path><path d="M627 557V221l16 6c2 1 45 17 91 61 45 44 63 85 64 87l3 8z m26-299v240l121-121c-7-13-25-42-55-72a293 293 0 0 0-66-48zM808 628H576v-18l4-5 221-215 7 15c1 2 21 44 21 108s-17 105-18 107z m-191-25h174c5-14 13-47 13-90a271 271 0 0 0-12-81zM639 803L462 628h341l-6 16c-1 2-17 45-62 90s-87 63-88 63zM522 653l122 120c13-7 43-24 74-55a289 289 0 0 0 48-65zM510 829c-64 0-107-17-108-18l-8-3V580h18l223 221-16 7c-2 2-44 21-109 21z m-92-38c14 4 47 13 92 13a282 282 0 0 0 82-12L419 620z" fill="#606060" p-id="20044"></path><path d="M396 803l-16-6c-2-1-45-17-91-61-45-44-63-85-64-87l-3-8 175-174z m-91-85a293 293 0 0 0 66 48V526L250 647c7 13 25 42 55 72zM223 635l-7-15c-1-2-20-44-20-108s17-105 18-107l3-7h248z m10-213c-5 14-13 47-13 90a271 271 0 0 0 12 81l174-171zM561 396H220l6-16c1-2 17-45 62-90s87-63 89-63l7-3z m-304-26h244L379 250c-13 7-43 24-73 55a290 290 0 0 0-49 65z" fill="#606060" p-id="20045"></path><path d="M512 1024C230 1024 0 794 0 512S230 0 512 0s512 230 512 512-230 512-512 512z m0-975C257 49 49 257 49 512s208 463 463 463 463-208 463-463S767 49 512 49z" fill="#606060" p-id="20046"></path></svg>