<?xml version="1.0" standalone="no"?><!DOCTYPE svg PUBLIC "-//W3C//DTD SVG 1.1//EN" "http://www.w3.org/Graphics/SVG/1.1/DTD/svg11.dtd"><svg t="1595989415151" class="icon" viewBox="0 0 1028 1024" version="1.1" xmlns="http://www.w3.org/2000/svg" p-id="11525" xmlns:xlink="http://www.w3.org/1999/xlink" width="64.25" height="64"><defs><style type="text/css"></style></defs><path d="M898.925714 766.537143c-8.045714-8.045714-17.554286-14.628571-28.525714-19.017143-10.971429-4.388571-22.674286-7.314286-35.108571-7.314286-12.434286 0-24.137143 2.194286-35.108572 7.314286-10.971429 4.388571-20.48 10.971429-28.525714 19.017143-8.045714 8.045714-14.628571 17.554286-19.017143 28.525714-4.388571 10.971429-7.314286 22.674286-7.314286 35.108572 0 12.434286 2.194286 24.137143 7.314286 35.108571 4.388571 10.971429 10.971429 20.48 19.017143 28.525714 8.045714 8.045714 17.554286 14.628571 28.525714 19.017143 10.971429 4.388571 22.674286 7.314286 35.108572 7.314286 12.434286 0 24.137143-2.194286 35.108571-7.314286 10.971429-4.388571 20.48-10.971429 28.525714-19.017143 8.045714-8.045714 14.628571-17.554286 19.017143-28.525714 4.388571-10.971429 7.314286-22.674286 7.314286-35.108571 0-12.434286-2.194286-24.137143-7.314286-35.108572a84.845714 84.845714 0 0 0-19.017143-28.525714z m97.28 88.502857c5.12 7.314286 11.702857 11.702857 20.48 15.36 2.194286 1.462857 3.657143 2.194286 5.12 3.657143 2.925714 2.194286 5.12 5.851429 6.582857 9.508571 0.731429 3.657143 0.731429 7.314286-0.731428 11.702857a76.214857 76.214857 0 0 1-11.702857 27.062858 29.257143 29.257143 0 0 1-8.777143 8.045714c-3.657143 1.462857-6.582857 2.194286-8.777143 2.194286s-5.12-0.731429-8.045714-1.462858c-2.925714-0.731429-6.582857-1.462857-10.24-2.194285-4.388571-0.731429-8.045714-0.731429-12.434286-0.731429-4.388571 0.731429-8.777143 1.462857-13.165714 2.925714s-8.045714 3.657143-10.971429 7.314286c-6.582857 6.582857-10.24 14.628571-11.702857 23.405714-1.462857 8.777143 0 16.822857 3.657143 24.868572 2.925714 5.851429 2.194286 10.971429-1.462857 16.822857-1.462857 2.194286-4.388571 4.388571-8.045715 6.582857s-7.314286 4.388571-11.702857 6.582857-8.777143 3.657143-13.165714 4.388572c-4.388571 0.731429-8.777143 1.462857-12.434286 1.462857-2.194286 0-5.12-0.731429-7.314285-2.925714s-3.657143-3.657143-4.388572-5.851429h-0.731428a46.372571 46.372571 0 0 0-15.36-21.942857 40.96 40.96 0 0 0-25.6-9.508572c-9.508571 0-18.285714 2.925714-25.6 9.508572-7.314286 5.851429-13.165714 13.165714-16.091429 21.942857-1.462857 3.657143-3.657143 5.851429-6.582857 7.314286-2.925714 1.462857-5.851429 2.194286-8.777143 2.194285-3.657143 0-8.045714-0.731429-13.165714-2.194285-5.12-1.462857-9.508571-2.925714-14.628572-5.12a56.173714 56.173714 0 0 1-13.165714-7.314286c-3.657143-2.925714-6.582857-5.851429-8.777143-8.045714a11.776 11.776 0 0 1-2.194286-6.582857c0-2.925714 0.731429-6.582857 2.925715-10.971429 2.925714-6.582857 4.388571-13.165714 3.657143-21.942857a42.422857 42.422857 0 0 0-10.24-22.674286 26.916571 26.916571 0 0 0-13.897143-8.045714c-5.851429-1.462857-10.971429-1.462857-16.091429-1.462857-5.851429 0-11.702857 1.462857-17.554286 3.657143-3.657143 0.731429-8.045714 0.731429-11.702857-0.731429-2.925714-0.731429-5.851429-3.657143-8.777143-7.314286a56.173714 56.173714 0 0 1-7.314285-13.165714c-2.194286-5.12-3.657143-9.508571-5.12-14.628571a25.014857 25.014857 0 0 1-0.731429-12.434286c0.731429-5.851429 3.657143-10.24 8.045714-11.702857 8.777143-5.12 16.822857-10.24 23.405715-17.554286 6.582857-7.314286 10.24-16.091429 10.24-25.6 0-9.508571-3.657143-18.285714-10.24-24.868571a68.022857 68.022857 0 0 0-22.674286-16.091429c-2.194286-0.731429-4.388571-2.925714-6.582857-5.851429a22.528 22.528 0 0 1-2.194286-9.508571c0-3.657143 0.731429-7.314286 1.462857-11.702857 1.462857-4.388571 2.925714-8.777143 4.388572-12.434286 1.462857-4.388571 3.657143-8.045714 6.582857-10.971428 2.194286-3.657143 5.12-5.851429 7.314286-7.314286 2.194286-2.925714 4.388571-2.925714 6.582857-2.925714s4.388571 0.731429 6.582857 1.462857c8.045714 2.925714 16.822857 4.388571 25.6 2.925714 9.508571-0.731429 17.554286-5.12 24.868571-11.702857 3.657143-3.657143 5.851429-7.314286 7.314286-12.434286 1.462857-5.12 2.194286-9.508571 2.925714-13.897143 0.731429-4.388571 0.731429-8.777143 0-12.434285-0.731429-3.657143-0.731429-6.582857-0.731428-8.045715-0.731429-1.462857-0.731429-3.657143-1.462857-5.851428s0-4.388571 0.731428-5.851429c1.462857-3.657143 4.388571-7.314286 8.777143-10.24a83.382857 83.382857 0 0 1 28.525714-11.702857c4.388571-0.731429 8.777143-1.462857 10.971429-1.462857 3.657143 0 6.582857 1.462857 8.777143 3.657143 2.194286 2.194286 3.657143 4.388571 4.388571 7.314285 2.925714 7.314286 8.045714 13.897143 14.628572 19.748572 6.582857 5.851429 15.36 8.777143 24.137142 8.777143a44.324571 44.324571 0 0 0 41.691429-28.525715 40.228571 40.228571 0 0 1 5.12-6.582857c2.194286-2.194286 5.12-3.657143 7.314286-3.657143 3.657143 0 8.045714 0.731429 12.434285 1.462858l13.165715 4.388571c4.388571 2.194286 8.777143 4.388571 12.434285 7.314286 3.657143 2.925714 6.582857 6.582857 8.777143 10.24 1.462857 2.194286 1.462857 4.388571 1.462857 7.314285-0.731429 2.925714-1.462857 4.388571-1.462857 5.851429-3.657143 8.045714-4.388571 16.091429-3.657143 24.868571 1.462857 8.777143 5.12 16.822857 11.702858 23.405715s14.628571 10.24 24.137142 10.971428c9.508571 0.731429 19.017143-0.731429 27.062858-4.388571 2.194286-1.462857 5.12-2.194286 8.045714-1.462857 2.925714 0 5.851429 1.462857 8.045714 3.657143 4.388571 3.657143 8.045714 9.508571 10.971429 17.554285 2.925714 8.045714 5.12 15.36 6.582857 23.405715 0.731429 4.388571 0 8.045714-2.194286 10.971428-2.194286 2.925714-4.388571 4.388571-6.582857 5.12a43.154286 43.154286 0 0 0-21.942857 16.091429 40.228571 40.228571 0 0 0-8.777143 25.6c0.731429 8.045714 2.925714 16.091429 8.045714 23.405714z" fill="#A2803F" p-id="11526"></path><path d="M548.571429 966.948571c0 21.211429-17.554286 38.034286-38.034286 38.034286H196.754286c-31.451429 0-60.708571-12.434286-83.382857-34.377143-21.942857-21.942857-34.377143-51.931429-34.377143-82.651428V648.045714c0-21.211429 16.822857-38.034286 38.034285-38.034285 21.211429 0 38.034286 17.554286 38.034286 38.034285v239.908572c0 22.674286 18.285714 40.96 40.96 40.96h313.782857c21.211429-0.731429 38.765714 16.822857 38.765715 38.034285zM1013.028571 389.12l-77.531428-289.645714C920.137143 42.422857 868.205714 2.194286 808.96 2.194286H215.771429c-57.782857 0-109.714286 38.765714-125.805715 94.354285L10.971429 369.371429c-20.48 70.217143 11.702857 147.017143 76.8 182.125714 24.868571 13.165714 51.931429 19.748571 78.994285 19.748571 38.034286 0 75.337143-13.165714 105.325715-38.034285l5.851428-4.388572 5.12 5.12c29.257143 30.72 70.217143 48.274286 111.908572 48.274286h14.628571c35.84 0 70.217143-13.165714 96.548571-37.302857L512 540.525714l5.12 5.12c27.062857 23.405714 60.708571 36.571429 96.548571 36.571429h12.434286c39.497143 0 78.262857-16.091429 105.325714-44.617143l5.12-5.12 5.851429 4.388571c46.811429 36.571429 109.714286 49.005714 167.497143 32.914286a149.211429 149.211429 0 0 0 103.131428-180.662857z m-124.342857 106.788571c-46.811429 13.165714-96.548571-5.12-124.342857-45.348571l-3.657143-5.851429a37.888 37.888 0 0 0-37.302857-16.091428c-14.628571 2.925714-26.331429 13.165714-30.72 27.062857-8.777143 29.257143-36.571429 49.737143-67.291428 49.737143h-11.702858a65.828571 65.828571 0 0 1-63.634285-49.005714 37.741714 37.741714 0 0 0-37.302857-27.794286c-13.165714 0-30.72 7.314286-36.571429 27.794286-8.045714 29.257143-35.108571 49.737143-65.828571 49.737142h-14.628572c-32.914286 0-62.902857-21.211429-73.874286-51.931428-4.388571-12.434286-14.628571-21.942857-27.794285-24.868572a40.082286 40.082286 0 0 0-35.84 10.24l-27.062857 28.525715c-27.794286 28.525714-71.68 35.108571-107.52 16.091428-32.914286-17.554286-49.737143-57.051429-39.497143-93.622857l78.994285-272.822857c6.582857-23.405714 27.794286-39.497143 51.931429-39.497143h593.188571c24.868571 0 46.08 16.822857 52.662858 40.228572l77.531428 289.645714a70.802286 70.802286 0 0 1-49.737143 87.771428z" fill="#303133" p-id="11527"></path></svg>