<?xml version="1.0" standalone="no"?><!DOCTYPE svg PUBLIC "-//W3C//DTD SVG 1.1//EN" "http://www.w3.org/Graphics/SVG/1.1/DTD/svg11.dtd"><svg t="1596784808482" class="icon" viewBox="0 0 1024 1024" version="1.1" xmlns="http://www.w3.org/2000/svg" p-id="2440" xmlns:xlink="http://www.w3.org/1999/xlink" width="64" height="64"><defs><style type="text/css"></style></defs><path d="M566.192 51.944a76.944 76.944 0 0 0-103.392 0L44.72 448.928a38.568 38.568 0 0 0 51.648 57.288l6.648-6.312V914.24a77.136 77.136 0 0 0 77.136 77.232h224.472v-232.224a54.312 54.312 0 0 1 54.336-54.384h105.624a54.312 54.312 0 0 1 54.336 54.384v232.224h229.8a77.136 77.136 0 0 0 77.16-77.232V504.968c17.136 15.504 41.448 14.328 55.704-1.56a38.568 38.568 0 0 0-2.784-54.48L566.192 51.968z" fill="#9497A0" p-id="2441"></path></svg>