<?xml version="1.0" standalone="no"?><!DOCTYPE svg PUBLIC "-//W3C//DTD SVG 1.1//EN" "http://www.w3.org/Graphics/SVG/1.1/DTD/svg11.dtd"><svg t="1596092641215" class="icon" viewBox="0 0 1024 1024" version="1.1" xmlns="http://www.w3.org/2000/svg" p-id="18749" xmlns:xlink="http://www.w3.org/1999/xlink" width="64" height="64"><defs><style type="text/css"></style></defs><path d="M26.505051 457.177212h970.640808V342.212525H26.505051v-112.757656c0-44.57503 37.025616-81.004606 82.307878-81.004606h806.15693c45.278384 0 82.439758 36.454141 82.439757 80.98004v566.191838c0 44.576323-37.025616 80.985212-82.307879 80.985213H108.812929c-45.282263 0-82.307879-36.408889-82.307878-80.985213V457.152646v0.024566z m293.762585 218.626586c11.803152-11.804444 11.803152-30.935919 0-42.744242l-109.332687-109.247354-109.339151 109.22796a30.240323 30.240323 0 0 0-6.605576 32.919272 30.235152 30.235152 0 0 0 27.878142 18.716445c7.808 0 15.268202-2.933657 21.18206-8.872081l35.833536-36.274424v140.909899c0 16.660687 14.368323 30.232566 31.050989 30.232565 16.655515 0 31.025131-13.571879 31.025132-30.232565V639.530667l35.832242 36.274424a29.871838 29.871838 0 0 0 42.475313-0.001293z m0 0" fill="#707070" p-id="18750"></path></svg>