<?xml version="1.0" standalone="no"?><!DOCTYPE svg PUBLIC "-//W3C//DTD SVG 1.1//EN" "http://www.w3.org/Graphics/SVG/1.1/DTD/svg11.dtd"><svg t="1596092555783" class="icon" viewBox="0 0 1024 1024" version="1.1" xmlns="http://www.w3.org/2000/svg" p-id="18500" xmlns:xlink="http://www.w3.org/1999/xlink" width="64" height="64"><defs><style type="text/css"></style></defs><path d="M931.555556 456.533333h0.094814-0.094814z" p-id="18501" fill="#8a8a8a"></path><path d="M512 113.777778a253.914074 253.914074 0 1 1-253.914074 253.914074A254.198519 254.198519 0 0 1 512 113.777778m0-56.888889a310.802963 310.802963 0 1 0 310.802963 310.802963A310.802963 310.802963 0 0 0 512 56.888889z" fill="#8a8a8a" p-id="18502"></path><path d="M770.465185 583.86963l104.296296 181.285926-65.327407-7.395556a78.696296 78.696296 0 0 0-8.817778-0.474074 76.705185 76.705185 0 0 0-70.352592 46.174815l-25.78963 60.207407L599.798519 682.666667l170.666666-98.512593m14.980741-85.333333c-3.602963 0-5.12 13.748148-13.368889 18.962963L541.297778 650.42963a24.367407 24.367407 0 0 0-6.257778 33.564444l155.401481 269.179259a26.642963 26.642963 0 0 0 22.376297 13.937778 19.437037 19.437037 0 0 0 9.481481-2.56l60.207408-138.334815a19.531852 19.531852 0 0 1 18.109629-12.041481h2.465185l149.902223 16.971852a24.367407 24.367407 0 0 0 6.257777-33.564445L789.333333 502.518519c-1.611852-2.74963-2.74963-3.792593-3.792592-3.792593zM253.534815 583.86963l170.666666 98.797037-104.296296 181.285926-26.263704-60.207408a76.705185 76.705185 0 0 0-70.352592-46.174815 78.601481 78.601481 0 0 0-8.817778 0.474074l-65.327407 7.395556 104.296296-181.285926m-14.980741-85.333333c-1.042963 0-2.275556 1.137778-3.792592 3.792592l-170.666667 295.158519a24.367407 24.367407 0 0 0 6.257778 33.564444l149.902222-16.971852h2.465185a19.531852 19.531852 0 0 1 18.10963 12.041482l60.207407 138.334815a19.437037 19.437037 0 0 0 9.481482 2.56 26.642963 26.642963 0 0 0 22.376296-13.937778l156.16-269.368889a24.367407 24.367407 0 0 0-6.257778-33.564444L251.922963 517.214815c-8.248889-4.740741-9.481481-18.962963-13.368889-18.962963zM608.047407 551.537778a28.444444 28.444444 0 0 1-13.748148-3.508148L512 502.518519l-82.299259 45.511111a28.444444 28.444444 0 0 1-41.813334-29.487408l16.023704-98.228148L336.213333 350.814815a28.444444 28.444444 0 0 1 16.118519-47.976296l92.349629-14.127408 41.623704-88.557037a28.444444 28.444444 0 0 1 51.484445 0l41.623703 88.557037 92.34963 14.127408A28.444444 28.444444 0 0 1 687.786667 350.814815l-67.697778 69.499259 16.023704 98.322963a28.444444 28.444444 0 0 1-28.444445 32.995556zM512 441.647407a28.444444 28.444444 0 0 1 13.748148 3.602963l44.847408 24.746667-8.912593-54.613333a28.444444 28.444444 0 0 1 7.205926-24.557037L608.426667 350.814815l-52.622223-8.059259a28.444444 28.444444 0 0 1-21.428148-16.023704l-22.281481-47.407408-22.281482 47.407408a28.444444 28.444444 0 0 1-21.428148 16.023704l-52.811852 8.059259L455.111111 390.826667a28.444444 28.444444 0 0 1 7.68 24.462222l-8.912592 54.613333L498.251852 445.62963a28.444444 28.444444 0 0 1 13.748148-3.982223z" fill="#8a8a8a" p-id="18503"></path></svg>