<?xml version="1.0" standalone="no"?><!DOCTYPE svg PUBLIC "-//W3C//DTD SVG 1.1//EN" "http://www.w3.org/Graphics/SVG/1.1/DTD/svg11.dtd"><svg t="1596011258205" class="icon" viewBox="0 0 1024 1024" version="1.1" xmlns="http://www.w3.org/2000/svg" p-id="14572" xmlns:xlink="http://www.w3.org/1999/xlink" width="64" height="64"><defs><style type="text/css"></style></defs><path d="M557.459394 375.466667v-110.002425H333.110303c-18.928485 0-34.288485 15.36-34.443636 34.288485v424.649697c0 18.928485 15.515152 34.288485 34.443636 34.288485h357.779394c18.928485 0 34.288485-15.36 34.443636-34.288485V419.219394h-123.96606c-24.203636 0-43.907879-19.549091-43.907879-43.752727z m85.333333 266.550303H353.745455c-11.326061 0-20.48-9.153939-20.48-20.48 0-11.326061 9.153939-20.48 20.48-20.48h289.047272c11.326061 0 20.48 9.153939 20.48 20.48 0 11.326061-9.153939 20.48-20.48 20.48z m20.48-130.01697c0 11.326061-9.153939 20.48-20.48 20.48H353.745455c-11.326061 0-20.48-9.153939-20.48-20.48 0-11.326061 9.153939-20.48 20.48-20.48h289.047272c11.326061 0 20.48 9.153939 20.48 20.48z" p-id="14573"></path><path d="M601.367273 378.104242h111.553939l-114.191515-107.675151V375.466667c0 1.396364 1.241212 2.637576 2.637576 2.637575z" p-id="14574"></path><path d="M512 0C229.158788 0 0 229.158788 0 512s229.158788 512 512 512 512-229.158788 512-512S794.841212 0 512 0z m254.603636 724.402424c-0.155152 41.735758-33.978182 75.403636-75.713939 75.403637H333.110303c-41.735758 0.155152-75.558788-33.667879-75.713939-75.403637V299.597576c0.155152-41.735758 33.978182-75.403636 75.713939-75.403637h262.981818c8.843636 0 17.221818 3.258182 23.738182 9.309091l136.067879 128.310303c6.826667 6.516364 10.705455 15.36 10.705454 24.824243v337.764848z" p-id="14575"></path></svg>