<?xml version="1.0" standalone="no"?><!DOCTYPE svg PUBLIC "-//W3C//DTD SVG 1.1//EN" "http://www.w3.org/Graphics/SVG/1.1/DTD/svg11.dtd"><svg t="1596101786949" class="icon" viewBox="0 0 1024 1024" version="1.1" xmlns="http://www.w3.org/2000/svg" p-id="21853" xmlns:xlink="http://www.w3.org/1999/xlink" width="64" height="64"><defs><style type="text/css"></style></defs><path d="M315.828419 191.698614a127.799076 127.799076 0 1 0 90.417846 37.38123A127.799076 127.799076 0 0 0 315.828419 191.698614z m45.368671 172.84825a63.899538 63.899538 0 0 1-90.417846 0A63.899538 63.899538 0 0 1 315.828419 255.598152a63.899538 63.899538 0 0 1 45.368671 18.850363 63.899538 63.899538 0 0 1 0 90.098349z" fill="#666666" p-id="21854"></path><path d="M1000.511968 526.85169L500.498083 27.157304a67.414013 67.414013 0 0 0-47.605156-19.808857 73.803966 73.803966 0 0 0-11.821414 0L116.781358 65.497026a67.73351 67.73351 0 0 0-54.634105 54.953603L4.957166 444.740784a67.094515 67.094515 0 0 0 18.530866 59.42657l500.013885 499.694387a67.094515 67.094515 0 0 0 95.849307 0l383.397227-381.480241a67.73351 67.73351 0 0 0-2.236483-95.52981z m-45.368672 50.161138L573.663054 958.493069a3.833972 3.833972 0 0 1-5.111963 0L68.856704 458.798682a2.555982 2.555982 0 0 1 0-2.875479L125.088298 131.31355A3.833972 3.833972 0 0 1 128.602772 127.799076l323.65116-56.551091a3.514475 3.514475 0 0 1 2.555982 0l500.333382 500.972377a2.875479 2.875479 0 0 1 0 4.792466z" fill="#666666" p-id="21855"></path></svg>