<?xml version="1.0" standalone="no"?><!DOCTYPE svg PUBLIC "-//W3C//DTD SVG 1.1//EN" "http://www.w3.org/Graphics/SVG/1.1/DTD/svg11.dtd"><svg t="1595989048101" class="icon" viewBox="0 0 1024 1024" version="1.1" xmlns="http://www.w3.org/2000/svg" p-id="9178" xmlns:xlink="http://www.w3.org/1999/xlink" width="64" height="64"><defs><style type="text/css"></style></defs><path d="M934.656 871.104H65.088V597.12l185.664-185.728a94.4 94.4 0 0 0 79.552 0l130.112 130.112a92.928 92.928 0 0 0-8.832 39.744 96.64 96.64 0 1 0 193.28 0c0-14.208-3.264-27.648-8.832-39.744L908.416 269.12a35.52 35.52 0 0 0-50.176-50.176L584.96 492.096a96.064 96.064 0 0 0-73.536-0.064L379.712 360.32a96.64 96.64 0 1 0-178.688 0L65.088 496.576V130.368a32.256 32.256 0 0 0-64.384 0v440.064a31.424 31.424 0 0 0 0 12.928v319.936c0 17.728 14.464 32.192 32.192 32.192H934.72a32.256 32.256 0 0 0-0.064-64.384zM548.16 549.056a32.256 32.256 0 0 1 0 64.384 32.256 32.256 0 0 1 0-64.384z m-257.6-257.664a32.256 32.256 0 0 1 0 64.384 32.256 32.256 0 0 1 0-64.384zM964.096 95.744a96 96 0 0 0-73.472 0m0.768-0.384c-36.864 16.96-60.672 52.224-60.672 89.728 0 49.472 41.536 96.64 96.64 96.64s96.64-47.168 96.64-96.64c0-37.376-23.68-72.576-60.288-89.6m-36.224 57.28a32.256 32.256 0 0 1 0 64.384 32.256 32.256 0 0 1 0-64.384z m0 0" p-id="9179"></path></svg>