<?xml version="1.0" standalone="no"?><!DOCTYPE svg PUBLIC "-//W3C//DTD SVG 1.1//EN" "http://www.w3.org/Graphics/SVG/1.1/DTD/svg11.dtd"><svg t="1595988756130" class="icon" viewBox="0 0 1024 1024" version="1.1" xmlns="http://www.w3.org/2000/svg" p-id="7654" xmlns:xlink="http://www.w3.org/1999/xlink" width="64" height="64"><defs><style type="text/css"></style></defs><path d="M871.36 170.66666667C608.74666667 170.66666667 535.46666667 71.78666667 535.25333333 71.36l-44.90666666 0.32c-0.42666667 0.96-75.62666667 98.98666667-337.38666667 98.98666667h-24.21333333v491.62666666c0 198.4 360.10666667 294.50666667 374.18666666 300.8l9.70666667 4.26666667 9.70666667-4.26666667c14.08-6.29333333 373.22666667-102.4 373.22666666-300.8V170.66666667h-24.21333333z m-24.21333333 491.62666666c0 149.97333333-281.6 226.24-334.61333334 251.52C418.34666667 869.97333333 177.06666667 795.73333333 177.06666667 662.29333333V219.30666667c188.69333333-4.37333333 300.69333333-59.94666667 335.46666666-96.74666667 34.56 36.90666667 145.28 92.37333333 334.61333334 96.74666667v442.98666666zM476.8 272.21333333c8.32 13.86666667 15.46666667 26.45333333 21.22666667 37.76H289.92v33.92h447.36v-33.92H540.69333333c-10.02666667-19.94666667-19.62666667-38.08-28.69333333-54.50666666l-35.2 16.74666666z m146.45333333 95.68l-34.66666666-21.01333333c-12.90666667 22.93333333-27.09333333 44.8-42.34666667 65.49333333h-103.46666667l24.64-17.70666666c-11.84-15.36-25.06666667-31.89333333-39.68-49.81333334l-27.84 19.62666667c12.37333333 15.78666667 23.68 31.78666667 34.24 47.89333333H320.10666667v317.12h34.24V445.33333333h314.88v207.14666667c0 22.93333333-9.92 34.45333333-29.65333334 34.45333333-15.46666667 0-35.30666667-1.28-59.30666666-3.84 2.13333333 8.32 4.37333333 21.65333333 6.82666666 40.10666667 23.68 0.64 45.01333333 0.74666667 63.89333334 0.53333333 34.98666667-0.32 52.48-20.58666667 52.48-60.8v-250.66666666H586.77333333c9.81333333-11.52 21.97333333-26.34666667 36.48-44.37333334z m-166.4 82.77333334c-31.04 30.61333333-63.25333333 57.6-96.64 80.85333333 5.22666667 5.76 12.37333333 15.14666667 21.44 28.16 30.93333333-24.21333333 64.21333333-52.26666667 99.84-84.16l-24.64-24.85333333z m202.45333334 71.25333333c-23.14666667-17.92-57.17333333-41.6-102.08-71.25333333l-20.05333334 26.34666666c36.16 24.64 69.33333333 49.6 99.41333334 75.09333334l22.72-30.18666667z m-54.72 6.18666667H421.65333333v154.02666666h32.85333334v-25.38666666h150.08V528.10666667zM571.73333333 626.13333333H454.50666667v-67.41333333H571.73333333V626.13333333z" fill="" p-id="7655"></path></svg>