<?xml version="1.0" standalone="no"?><!DOCTYPE svg PUBLIC "-//W3C//DTD SVG 1.1//EN" "http://www.w3.org/Graphics/SVG/1.1/DTD/svg11.dtd"><svg t="1595669798879" class="icon" viewBox="0 0 1024 1024" version="1.1" xmlns="http://www.w3.org/2000/svg" p-id="2852" xmlns:xlink="http://www.w3.org/1999/xlink" width="64" height="64"><defs><style type="text/css"></style></defs><path d="M520 972.8c-102.4 0-200-40-272-112-52.8-52.8-89.6-120-104-192-4.8-25.6-8-52.8-8-80 0-212.8 172.8-385.6 385.6-385.6s385.6 172.8 385.6 385.6-174.4 384-387.2 384z m0-731.2c-190.4 0-345.6 155.2-345.6 345.6 0 24 3.2 48 8 72 14.4 65.6 46.4 124.8 94.4 172.8 65.6 65.6 152 100.8 243.2 100.8 190.4 0 345.6-155.2 345.6-345.6s-155.2-345.6-345.6-345.6z" p-id="2853"></path><path d="M641.6 788.8c-6.4 0-12.8-3.2-17.6-9.6L499.2 576V363.2c0-11.2 9.6-19.2 19.2-19.2s19.2 9.6 19.2 19.2v200l120 193.6c6.4 9.6 3.2 22.4-6.4 27.2-1.6 4.8-6.4 4.8-9.6 4.8zM662.4 99.2H377.6c-11.2 0-19.2-9.6-19.2-19.2s9.6-19.2 19.2-19.2h283.2c11.2 0 19.2 9.6 19.2 19.2s-6.4 19.2-17.6 19.2z" p-id="2854"></path><path d="M520 236.8c-11.2 0-19.2-9.6-19.2-19.2V80c0-11.2 9.6-19.2 19.2-19.2s19.2 9.6 19.2 19.2v136c1.6 11.2-8 20.8-19.2 20.8z" p-id="2855"></path></svg>