<?xml version="1.0" standalone="no"?><!DOCTYPE svg PUBLIC "-//W3C//DTD SVG 1.1//EN" "http://www.w3.org/Graphics/SVG/1.1/DTD/svg11.dtd"><svg t="1595988200113" class="icon" viewBox="0 0 1024 1024" version="1.1" xmlns="http://www.w3.org/2000/svg" p-id="4384" xmlns:xlink="http://www.w3.org/1999/xlink" width="64" height="64"><defs><style type="text/css"></style></defs><path d="M475.84 591.84a278.06 278.06 0 0 1-196.61-474.66A278 278 0 1 1 672.45 510.4a276.2 276.2 0 0 1-196.61 81.44z m0-484.1c-113.61 0-206 92.44-206 206.05s92.43 206.05 206 206.05 206.05-92.44 206.05-206-92.43-206.1-206.05-206.1z" fill="" p-id="4385"></path><path d="M129.3 939.2a36 36 0 0 1-36-36 382.54 382.54 0 0 1 382.82-382.83 36 36 0 0 1 0 72A310.81 310.81 0 0 0 165.3 903.2a36 36 0 0 1-36 36z" fill="" p-id="4386"></path><path d="M512.34 767.88m36 0l0 0q36 0 36 36l0 118.38q0 36-36 36l0 0q-36 0-36-36l0-118.38q0-36 36-36Z" fill="" p-id="4387"></path><path d="M668.33 604.2m36 0l0 0q36 0 36 36l0 282.07q0 36-36 36l0 0q-36 0-36-36l0-282.07q0-36 36-36Z" fill="" p-id="4388"></path><path d="M824.32 704.16m36 0l0 0q36 0 36 36l0 182.1q0 36-36 36l0 0q-36 0-36-36l0-182.1q0-36 36-36Z" fill="" p-id="4389"></path></svg>