<?xml version="1.0" standalone="no"?><!DOCTYPE svg PUBLIC "-//W3C//DTD SVG 1.1//EN" "http://www.w3.org/Graphics/SVG/1.1/DTD/svg11.dtd"><svg t="1596175627539" class="icon" viewBox="0 0 1024 1024" version="1.1" xmlns="http://www.w3.org/2000/svg" p-id="1873" xmlns:xlink="http://www.w3.org/1999/xlink" width="64" height="64"><defs><style type="text/css"></style></defs><path d="M228.096 270.336l293.0688 153.4976 293.0176-153.4976-293.0176-153.4976L228.096 270.336zM544.9216 13.7216l403.4048 211.2512a51.2 51.2 0 0 1 0 90.7264l-403.456 211.2512a51.2 51.2 0 0 1-47.4624 0l-403.456-211.2512a51.2 51.2 0 0 1 0-90.7264L497.4592 13.7216a51.2 51.2 0 0 1 47.5136 0z" p-id="1874"></path><path d="M94.0032 763.904a51.2 51.2 0 0 1-27.4944-45.3632V270.336a51.2 51.2 0 0 1 74.9568-45.3632l403.456 211.3024a51.2 51.2 0 0 1 27.4432 45.312v448.2048a51.2 51.2 0 0 1-74.9568 45.3632l-403.456-211.3024z m74.9056-76.3904l301.056 157.696v-332.5952l-301.056-157.696v332.5952z" p-id="1875"></path><path d="M948.3264 763.904l-403.456 211.2512a51.2 51.2 0 0 1-74.9056-45.3632V481.5872a51.2 51.2 0 0 1 27.4432-45.312l403.4048-211.3024a51.2 51.2 0 0 1 74.9568 45.3632v448.2048a51.2 51.2 0 0 1-27.4432 45.312z m-375.9616 81.2544l301.0048-157.6448V354.9696l-301.056 157.6448v332.544z" p-id="1876"></path></svg>