<?xml version="1.0" standalone="no"?><!DOCTYPE svg PUBLIC "-//W3C//DTD SVG 1.1//EN" "http://www.w3.org/Graphics/SVG/1.1/DTD/svg11.dtd"><svg t="1595578950153" class="icon" viewBox="0 0 1024 1024" version="1.1" xmlns="http://www.w3.org/2000/svg" p-id="2870" xmlns:xlink="http://www.w3.org/1999/xlink" width="64" height="64"><defs><style type="text/css"></style></defs><path d="M654.222222 170.837333V312.888889a28.444444 28.444444 0 0 0 28.444445 28.444444h141.994666a142.222222 142.222222 0 0 0-40.561777-92.16l-35.328-35.953777a142.222222 142.222222 0 0 0-94.549334-42.382223z m170.666667 255.829334H682.666667a113.777778 113.777778 0 0 1-113.777778-113.777778V170.666667H227.555556a28.444444 28.444444 0 0 0-28.444445 28.444444v253.838222H113.777778V199.111111a113.777778 113.777778 0 0 1 113.777778-113.777778h419.783111a227.555556 227.555556 0 0 1 162.247111 68.039111l35.384889 36.010667A227.555556 227.555556 0 0 1 910.222222 348.842667V824.888889a113.777778 113.777778 0 0 1-113.777778 113.777778H227.555556a113.777778 113.777778 0 0 1-113.777778-113.777778v-30.606222h85.333333v30.606222a28.444444 28.444444 0 0 0 28.444445 28.444444h568.888888a28.444444 28.444444 0 0 0 28.444445-28.444444v-398.222222zM113.777778 732.501333V514.844444h55.864889v170.552889h105.358222v47.104H113.777778z m231.708444-108.600889c0 22.186667 4.494222 39.196444 13.482667 50.972445 9.045333 11.832889 21.959111 17.749333 38.798222 17.749333 16.952889 0 29.980444-5.916444 39.082667-17.749333 9.102222-11.776 13.653333-28.785778 13.653333-50.972445 0-22.072889-4.551111-39.025778-13.653333-50.858666-9.102222-11.946667-22.129778-17.806222-39.082667-17.806222-16.839111 0-29.752889 5.859556-38.798222 17.692444-8.988444 11.832889-13.482667 28.842667-13.482667 50.972444z m-56.604444 0c0-35.328 9.784889-63.317333 29.354666-83.854222 19.512889-20.48 46.08-30.776889 79.530667-30.776889 33.564444 0 60.302222 10.24 80.042667 30.890667 19.740444 20.536889 29.582222 48.469333 29.582222 83.740444s-9.841778 63.203556-29.582222 83.797334c-19.740444 20.593778-46.421333 30.890667-80.042667 30.890666-33.507556 0-60.017778-10.24-79.530667-30.833777-19.569778-20.48-29.354667-48.469333-29.354666-83.854223z m415.800889 108.657778l-4.437334-28.103111c-8.192 11.377778-17.92 19.911111-29.184 25.486222-11.264 5.575111-24.462222 8.362667-39.537777 8.362667-14.051556 0-27.079111-2.56-39.082667-7.68a91.875556 91.875556 0 0 1-31.687111-22.641778 102.741333 102.741333 0 0 1-21.731556-36.181333 135.281778 135.281778 0 0 1-7.395555-45.511111c0-35.555556 10.24-64.113778 30.549333-85.560889 20.309333-21.504 47.388444-32.199111 81.180444-32.199111 25.543111 0 46.592 6.371556 63.146667 19.171555 16.611556 12.856889 27.136 30.72 31.573333 53.816889h-53.361777a42.325333 42.325333 0 0 0-16.213334-21.219555 47.786667 47.786667 0 0 0-26.737777-7.168 46.307556 46.307556 0 0 0-38.741334 19.512889c-9.841778 13.027556-14.791111 30.151111-14.791111 51.598222 0 21.048889 4.892444 37.831111 14.563556 50.289778 9.671111 12.458667 22.698667 18.659556 38.968889 18.659555a51.2 51.2 0 0 0 32.256-9.898667 42.837333 42.837333 0 0 0 15.928888-27.591111h-48.526222v-41.813333H739.555556v118.613333h-34.872889z" p-id="2871"></path></svg>