<?xml version="1.0" standalone="no"?><!DOCTYPE svg PUBLIC "-//W3C//DTD SVG 1.1//EN" "http://www.w3.org/Graphics/SVG/1.1/DTD/svg11.dtd"><svg t="1595990054897" class="icon" viewBox="0 0 1024 1024" version="1.1" xmlns="http://www.w3.org/2000/svg" p-id="12198" xmlns:xlink="http://www.w3.org/1999/xlink" width="64" height="64"><defs><style type="text/css"></style></defs><path d="M352.256 415.744c-2.56 7.168-31.744 96.256-152.064 96.256-93.184 0-168.448-64-168.448-174.08 0-54.272 42.496-145.92 128-273.92h704c85.504 128 128 219.136 128 273.92 0 110.08-75.264 174.08-167.936 174.08-119.808 0-149.504-88.576-152.064-96.256-2.048 7.168-31.744 96.256-159.744 96.256S354.304 422.912 352.256 415.744z" p-id="12199"></path><path d="M829.44 128H194.56C128.512 230.4 96.256 303.104 96.256 337.92c0 69.632 41.472 110.08 103.936 110.08 53.76 0 79.36-15.872 91.136-52.224 19.456-58.368 101.888-58.368 121.344 0 11.776 35.328 39.424 52.224 99.328 52.224s87.552-16.384 99.328-52.224c19.456-58.368 101.888-58.368 121.344 0 12.288 36.352 37.376 52.224 91.136 52.224 62.976 0 103.936-40.448 103.936-110.08 0-34.816-32.256-107.52-98.304-209.92z" fill="#FFFFFF" p-id="12200"></path><path d="M832 576c0-17.92 14.336-31.744 31.744-31.744s31.744 14.336 31.744 31.744v224.256c0 88.576-71.68 159.744-159.744 159.744H287.744c-88.576 0-159.744-71.68-159.744-159.744v-224.256c0-17.92 14.336-31.744 31.744-31.744s31.744 14.336 31.744 31.744v224.256c0 53.248 43.008 96.256 96.256 96.256h448c53.248 0 96.256-43.008 96.256-96.256v-224.256z" p-id="12201"></path><path d="M352.256 704h320c17.92 0 31.744 14.336 31.744 31.744 0 17.92-14.336 31.744-31.744 31.744H352.256c-17.92 0-31.744-14.336-31.744-31.744-0.512-17.408 13.824-31.744 31.744-31.744z" fill="#DF4B5A" p-id="12202"></path></svg>