<?xml version="1.0" standalone="no"?><!DOCTYPE svg PUBLIC "-//W3C//DTD SVG 1.1//EN" "http://www.w3.org/Graphics/SVG/1.1/DTD/svg11.dtd"><svg t="1596100691143" class="icon" viewBox="0 0 1024 1024" version="1.1" xmlns="http://www.w3.org/2000/svg" p-id="20487" xmlns:xlink="http://www.w3.org/1999/xlink" width="64" height="64"><defs><style type="text/css"></style></defs><path d="M166.2 38h691.2c70.7 0 128 57.3 128 128v691.1c0 70.7-57.3 128-128 128H166.2c-70.7 0-128-57.3-128-128V166c0-70.6 57.4-128 128-128z m188.3 596l-67.6 129.8 75.7-16.2 42.4 54.1L462.6 690s44.1 12.1 100-1.8l63.1 113.5 37.8-54.1 80.2 16.2-71.1-131.5s44.1-37.4 64.8-98.2c0 0 50.9-140.6-64-250.5 0 0-140.1-132.9-309-11.7-33.2 23.8-63.3 68.4-73.9 98.2-45.4 127.2 14 228.8 64 263.9zM514 300.6c87 0 157.7 70.6 157.7 157.7S601.1 616 514 616c-87 0-157.7-70.6-157.7-157.7S426.9 300.6 514 300.6z" fill="#8a8a8a" p-id="20488"></path></svg>