<?xml version="1.0" standalone="no"?><!DOCTYPE svg PUBLIC "-//W3C//DTD SVG 1.1//EN" "http://www.w3.org/Graphics/SVG/1.1/DTD/svg11.dtd"><svg t="1596075197606" class="icon" viewBox="0 0 1024 1024" version="1.1" xmlns="http://www.w3.org/2000/svg" p-id="15329" xmlns:xlink="http://www.w3.org/1999/xlink" width="64" height="64"><defs><style type="text/css"></style></defs><path d="M806.09523823 578.54171469a27.31885687 27.31885687 0 0 1-4.52571469 17.17028531l-109.79657156 164.65371469a27.42857156 27.42857156 0 0 1-45.64114219 0l-109.71428625-164.68114313a27.29142844 27.29142844 0 0 1-4.608-16.18285687V169.14285687a137.14285687 137.14285687 0 0 1 274.28571469 0v409.39885782zM745.72495198 580.57142844h-153.49028531L668.95238137 695.68914313 745.75238135 580.57142844zM888.38095198 224a27.42857156 27.42857156 0 0 1 0-54.85714313h27.42857157a82.28571469 82.28571469 0 0 1 82.28571468 82.28571469v658.28571375a82.28571469 82.28571469 0 0 1-82.28571468 82.28571469H92.95238137a82.28571469 82.28571469 0 0 1-82.2857147-82.28571469V251.42857156a82.28571469 82.28571469 0 0 1 82.28571468-82.28571469h356.57142844a27.42857156 27.42857156 0 1 1 0 54.85714313H92.95238137a27.42857156 27.42857156 0 0 0-27.42857158 27.42857156v658.28571375a27.42857156 27.42857156 0 0 0 27.42857156 27.42857156h822.85714219a27.42857156 27.42857156 0 0 0 27.42857157-27.42857156V251.42857156a27.42857156 27.42857156 0 0 0-27.42857157-27.42857156h-27.42857156z m-137.14285687 301.71428531V169.14285687a82.28571469 82.28571469 0 0 0-164.57142844 0v356.57142844h164.57142844zM202.66666667 333.71428531h137.14285688a27.42857156 27.42857156 0 0 1-1e-8 54.85714313H202.66666667a27.42857156 27.42857156 0 0 1 0-54.85714313z m0 219.42857156h137.14285688a27.42857156 27.42857156 0 0 1-1e-8 54.85714313H202.66666667a27.42857156 27.42857156 0 0 1 0-54.85714311z m0 219.42857157h329.14285688a27.42857156 27.42857156 0 0 1-1e-8 54.85714312H202.66666667a27.42857156 27.42857156 0 0 1 0-54.85714312z" fill="#666666" p-id="15330"></path></svg>