<?xml version="1.0" standalone="no"?><!DOCTYPE svg PUBLIC "-//W3C//DTD SVG 1.1//EN" "http://www.w3.org/Graphics/SVG/1.1/DTD/svg11.dtd"><svg t="1595988501072" class="icon" viewBox="0 0 1024 1024" version="1.1" xmlns="http://www.w3.org/2000/svg" p-id="5396" xmlns:xlink="http://www.w3.org/1999/xlink" width="64" height="64"><defs><style type="text/css"></style></defs><path d="M676.544 403.84c5.12 15.104-3.072 31.488-18.176 36.48-15.104 4.992-31.488-3.072-36.48-18.176-6.912-20.48-31.488-44.416-78.464-44.416-38.912 0-61.952 26.112-64.64 51.968-3.328 31.744 23.808 57.6 70.528 67.328 93.568 19.584 121.088 82.176 116.096 129.92-5.12 49.92-43.264 89.344-93.184 100.48v36.224c0 16-12.928 28.928-28.928 28.928-16 0-28.928-12.928-28.928-28.928V728.32c-59.52-9.6-93.184-48-104.32-81.664-5.12-15.104 3.072-31.488 18.176-36.48 15.104-5.12 31.488 3.072 36.48 18.176 6.912 20.48 31.488 44.416 78.464 44.416 38.912 0 61.952-26.112 64.64-51.968 3.328-31.744-23.808-57.6-70.528-67.328-93.568-19.584-121.088-82.176-116.096-129.92 5.12-49.92 43.264-89.344 93.184-100.48v-36.224c0-16 12.928-28.928 28.928-28.928 16 0 28.928 12.928 28.928 28.928v35.2c59.52 9.728 93.184 48.128 104.32 81.792z m0 0" p-id="5397"></path><path d="M512.32 139.904c53.12 0 104.704 10.368 153.344 30.976 46.848 19.84 88.96 48.256 125.184 84.352 36.096 36.096 64.512 78.208 84.352 125.184 20.48 48.512 30.976 100.096 30.976 153.344s-10.368 104.704-30.976 153.344c-19.84 46.848-48.256 88.96-84.352 125.184-36.096 36.096-78.208 64.512-125.184 84.352-48.512 20.48-100.096 30.976-153.344 30.976-46.208 0-91.648-7.936-134.784-23.68-16-5.76-24.192-23.424-18.432-39.424 5.76-16 23.424-24.192 39.424-18.432 36.352 13.184 74.624 19.968 113.664 19.968 183.168 0 332.288-148.992 332.288-332.288 0-183.168-148.992-332.288-332.288-332.288-183.04 0-332.032 148.992-332.032 332.288 0 39.04 6.656 77.312 19.968 113.664 5.76 16-2.432 33.664-18.432 39.424s-33.664-2.432-39.424-18.432C126.528 625.28 118.592 579.968 118.592 533.76c0-53.12 10.368-104.704 30.976-153.344 19.84-46.848 48.256-88.96 84.352-125.184 36.096-36.096 78.208-64.512 125.184-84.352 48.512-20.608 100.096-30.976 153.216-30.976z m0 0" p-id="5398"></path><path d="M229.952 806.528H186.816c-15.232 0-27.648-12.416-27.648-27.648 0-15.232 12.416-27.648 27.648-27.648H328c15.232 0 27.648 12.416 27.648 27.648 0 15.232-12.416 27.648-27.648 27.648H229.952zM400.96 893.184l-3.712 2.816c-12.032 9.344-29.44 7.168-38.784-4.864-9.344-12.032-7.168-29.44 4.864-38.784l3.712-2.816 43.648-33.92 34.048-26.368c12.032-9.344 29.44-7.168 38.784 4.864 9.344 12.032 7.168 29.44-4.864 38.784l-34.048 26.368-43.648 33.92z" p-id="5399"></path></svg>