<?xml version="1.0" standalone="no"?><!DOCTYPE svg PUBLIC "-//W3C//DTD SVG 1.1//EN" "http://www.w3.org/Graphics/SVG/1.1/DTD/svg11.dtd"><svg t="1595499571089" class="icon" viewBox="0 0 1024 1024" version="1.1" xmlns="http://www.w3.org/2000/svg" p-id="1570" xmlns:xlink="http://www.w3.org/1999/xlink" width="64" height="64"><defs><style type="text/css"></style></defs><path d="M750.136889 578.56a105.244444 105.244444 0 0 1 148.878222 0l44.259556 44.202667a105.244444 105.244444 0 0 1 0 148.878222l-238.819556 238.762667-125.212444 12.686222a73.955556 73.955556 0 0 1-81.009778-81.351111l13.198222-124.472889zM432.355556 14.222222a292.977778 292.977778 0 0 1 165.489777 534.755556c14.165333 6.030222 27.989333 12.913778 41.415111 20.593778a42.666667 42.666667 0 1 1-42.268444 74.069333 331.036444 331.036444 0 0 0-163.498667-43.463111H431.104 432.355556a332.8 332.8 0 0 0-332.8 332.8 42.666667 42.666667 0 1 1-85.333334 0 418.247111 418.247111 0 0 1 252.586667-384.113778A292.977778 292.977778 0 0 1 432.355556 14.222222z m159.857777 850.432l-7.623111 72.078222 72.078222-7.338666-64.455111-64.739556z m246.442667-225.792a19.911111 19.911111 0 0 0-28.16 0l-161.735111 161.621334 72.248889 72.533333 161.905778-161.735111a19.911111 19.911111 0 0 0 4.551111-20.992l-1.991111-4.039111-2.56-3.128889zM432.355556 99.555556a207.644444 207.644444 0 1 0 0 415.288888h-1.194667 2.275555a207.644444 207.644444 0 0 0-1.080888-415.288888z" p-id="1571"></path></svg>