<?xml version="1.0" standalone="no"?><!DOCTYPE svg PUBLIC "-//W3C//DTD SVG 1.1//EN" "http://www.w3.org/Graphics/SVG/1.1/DTD/svg11.dtd"><svg t="1595988259819" class="icon" viewBox="0 0 1024 1024" version="1.1" xmlns="http://www.w3.org/2000/svg" p-id="5179" xmlns:xlink="http://www.w3.org/1999/xlink" width="64" height="64"><defs><style type="text/css"></style></defs><path d="M191.851493 47.440475l636.650975 0c70.310346 0 127.319757 57.009412 127.319757 127.32692l0 127.319757-47.28391 0 0-127.319757c0-35.162848-44.878117-80.035848-80.035848-80.035848L174.460404 94.731548c-35.162848 0-63.662949 44.88221-63.662949 80.035848l0 700.269921c0 35.162848 28.505217 81.059154 63.662949 81.059154l654.042063 0c35.157731 0 80.029708-45.895283 80.029708-81.059154L908.532175 747.715513l47.290049 0 0 127.320781c0 70.315462-57.009412 127.324874-127.319757 127.324874L191.851493 1002.361167c-70.310346 0.005117-127.319757-57.009412-127.319757-127.324874L64.531735 174.767396C64.531735 104.449887 121.541147 47.440475 191.851493 47.440475L191.851493 47.440475 191.851493 47.440475 191.851493 47.440475zM682.104189 326.204433c-12.404518-12.424984-12.404518-32.603559 0-45.001937 12.435217-12.43931 32.603559-12.43931 45.044916 0l219.615836 219.606627c6.621814 6.626931 9.448186 15.422248 9.015328 24.089651 0.431835 8.67866-2.394537 17.476023-9.015328 24.128537L727.148082 768.637008c-12.441357 12.435217-32.608675 12.435217-45.044916 0-12.404518-12.4301-12.404518-32.608675 0-45.01217l166.903288-166.898171L603.152023 556.726667c-17.559934 0-31.828916-14.230096-31.828916-31.828916 0-17.559934 14.268982-31.833009 31.828916-31.833009l245.855454 0L682.104189 326.204433 682.104189 326.204433 682.104189 326.204433 682.104189 326.204433zM338.886267 591.142501l0-48.282656-93.888344 0c-19.697621 0-29.503964-7.129374-29.503964-21.460778 0-14.290471 9.806343-22.337751 29.503964-24.139793l64.385403 0-109.98495-168.991856c-1.799996 0-3.607154-1.763157-5.365194-5.365194-3.607154-5.371334-5.365194-12.494569-5.365194-21.461801 0-12.487406 8.048303-20.541849 24.14491-24.143886 12.489452 1.806135 23.218818 8.048303 32.18605 18.779715l123.392308 185.088462 123.393331-185.088462c7.129374-10.731412 17.853623-16.97358 32.19219-18.779715 14.289448 3.607154 22.337751 11.655458 24.137747 24.143886 0 5.365194-2.681062 12.532431-8.04114 21.461801-1.807159 1.799996-2.688225 3.602038-2.688225 5.365194L427.409416 497.259274l64.374146 0c17.853623 1.802042 27.702945 9.848299 29.509081 24.139793-1.806135 14.331403-11.655458 21.460778-29.509081 21.460778l-93.888344 0 0 48.282656 93.888344 0c17.853623 1.802042 27.702945 9.848299 29.509081 24.150026-1.806135 14.326287-11.655458 21.449521-29.509081 21.449521l-93.888344 0 0 107.301841c-1.795902 17.891486-11.650341 26.815739-29.504988 26.815739-19.702738 0-29.509081-8.924253-29.509081-26.815739L338.881151 636.743072l-93.883227 0c-19.697621 0-29.503964-7.123234-29.503964-21.449521 0-14.301727 9.806343-22.349007 29.503964-24.150026L338.886267 591.143525 338.886267 591.142501 338.886267 591.142501zM338.886267 591.142501" p-id="5180"></path></svg>